<svg xmlns="http://www.w3.org/2000/svg" width="86" height="86" viewBox="0 0 86 86">
<g>
<path d="M 37.00 69.00 C31.16,71.98 26.30,71.61 20.70,67.75 C13.20,62.58 15.97,59.50 25.24,62.69 C30.16,64.39 33.31,63.78 36.59,60.50 C39.77,57.32 39.72,55.00 36.48,55.00 C34.24,55.00 34.03,54.70 34.62,52.25 C34.98,50.74 35.65,48.77 36.10,47.88 C36.56,46.99 36.66,45.99 36.32,45.66 C35.99,45.32 36.45,44.81 37.36,44.52 C38.26,44.24 39.73,43.77 40.61,43.49 C41.92,43.07 41.99,42.69 40.99,41.49 C40.31,40.67 38.98,40.00 38.03,40.00 C35.55,40.00 32.70,36.49 33.43,34.32 C34.09,32.35 40.00,29.00 42.84,29.00 C45.18,29.00 46.89,33.97 47.13,41.50 C47.60,55.91 44.12,65.37 37.00,69.00 Z" fill="rgb(73,184,222)"/>
<path d="M 32.00 44.09 C32.00,44.82 37.77,44.37 40.86,43.40 C40.87,43.40 40.87,43.40 40.88,43.40 C40.80,43.43 40.71,43.46 40.61,43.49 C39.73,43.77 38.26,44.24 37.36,44.52 C36.45,44.81 35.99,45.32 36.32,45.66 C36.66,45.99 36.56,46.99 36.10,47.88 C35.65,48.77 34.98,50.74 34.62,52.25 C34.03,54.70 34.24,55.00 36.48,55.00 C37.22,55.00 37.79,55.12 38.19,55.34 C37.18,55.39 34.92,55.83 32.43,56.48 C29.21,57.31 25.32,58.00 23.79,58.00 C22.26,58.00 21.00,58.38 21.00,58.85 C21.00,59.78 22.75,61.44 24.58,62.47 C16.88,59.99 14.06,62.06 18.49,66.03 C16.00,63.94 13.37,61.07 12.04,58.91 C8.69,53.47 5.00,43.01 5.00,38.98 L 5.00 36.29 L 14.75 35.72 C24.27,35.17 32.81,33.23 38.15,30.40 C39.35,29.77 40.40,29.37 41.33,29.22 C38.29,30.01 33.98,32.65 33.43,34.32 C32.70,36.49 35.55,40.00 38.03,40.00 C38.66,40.00 39.47,40.30 40.13,40.74 C39.44,40.31 38.58,40.00 37.71,40.00 C35.65,40.00 32.00,42.62 32.00,44.09 ZM 13.00 48.22 C13.00,48.72 13.79,48.91 14.75,48.64 C15.71,48.37 18.05,47.84 19.94,47.45 C23.16,46.80 23.26,46.66 21.50,45.38 C20.47,44.62 18.95,44.00 18.14,44.00 C16.46,44.00 13.00,46.84 13.00,48.22 ZM 45.06 30.77 C46.33,32.63 46.96,36.13 47.13,41.50 C46.97,36.64 46.21,32.85 45.06,30.77 ZM 35.72 61.31 C34.73,62.16 33.73,62.77 32.68,63.15 C33.27,62.88 33.91,62.52 34.66,62.07 C35.02,61.84 35.38,61.59 35.72,61.31 ZM 38.92 56.88 C38.81,57.69 38.22,58.72 37.17,59.89 C38.04,58.87 38.69,57.77 38.92,56.88 ZM 37.00 69.00 C33.65,70.71 30.73,71.33 27.75,70.82 C30.73,71.29 33.71,70.68 37.00,69.00 ZM 41.10 43.31 C41.58,43.07 41.68,42.66 41.52,42.21 C41.82,42.75 41.69,43.05 41.10,43.31 Z" fill="rgb(118,202,232)"/>
<path d="M 45.06 30.77 C44.42,29.63 43.67,29.00 42.84,29.00 C42.40,29.00 41.88,29.08 41.33,29.22 C40.40,29.37 39.35,29.77 38.15,30.40 C33.43,32.90 26.21,34.71 18.02,35.47 C22.38,35.02 27.11,34.21 29.75,33.42 C35.27,31.77 36.00,31.26 36.01,29.03 C36.01,25.38 37.93,19.00 39.03,19.00 C39.54,19.00 43.45,20.21 47.73,21.69 C54.30,23.96 57.24,24.38 66.75,24.44 L 78.00 24.50 L 77.99 27.50 C77.96,35.70 72.17,49.63 66.46,55.26 C61.42,60.23 56.33,61.77 50.28,60.15 C47.78,59.48 45.64,59.06 45.54,59.22 C45.43,59.37 44.32,61.20 43.07,63.28 C42.76,63.81 42.34,64.37 41.87,64.92 C44.75,61.22 46.48,55.79 47.01,48.77 C47.07,50.31 47.57,50.62 49.25,50.31 C50.49,50.08 53.30,50.32 55.50,50.85 C62.14,52.43 63.23,52.30 62.04,50.08 C58.52,43.50 48.17,42.01 47.09,47.43 C47.19,45.56 47.20,43.58 47.13,41.50 C47.02,37.94 46.70,35.20 46.13,33.22 C46.55,33.72 47.14,34.14 47.84,34.33 C50.60,35.06 50.86,35.04 51.47,34.04 C52.22,32.83 47.42,29.62 46.09,30.45 C45.69,30.69 45.50,31.06 45.48,31.49 C45.34,31.23 45.21,30.99 45.06,30.77 ZM 64.72 37.11 C66.80,37.44 68.84,37.78 69.25,37.86 C70.68,38.13 69.99,36.30 67.97,34.47 C66.38,33.03 65.36,32.84 63.29,33.57 C59.61,34.86 60.22,36.39 64.72,37.11 ZM 8.68 36.08 L 5.00 36.29 L 5.00 36.27 ZM 36.94 69.03 C33.62,70.72 30.71,71.33 27.74,70.82 L 27.75 70.82 C30.72,71.33 33.63,70.71 36.96,69.02 C36.95,69.02 36.95,69.03 36.94,69.03 Z" fill="rgb(236,153,185)"/>
<path d="M 0.00 43.00 L 0.00 0.00 L 43.00 0.00 L 86.00 0.00 L 86.00 43.00 L 86.00 86.00 L 43.00 86.00 L 0.00 86.00 L 0.00 43.00 ZM 36.94 69.03 C39.06,67.95 41.82,65.36 43.07,63.28 C44.32,61.20 45.43,59.37 45.54,59.22 C45.64,59.06 47.78,59.48 50.28,60.15 C56.33,61.77 61.42,60.23 66.46,55.26 C72.17,49.63 77.96,35.70 77.99,27.50 L 78.00 24.50 L 66.75 24.44 C57.24,24.38 54.30,23.96 47.73,21.69 C43.45,20.21 39.54,19.00 39.03,19.00 C37.93,19.00 36.01,25.38 36.01,29.03 C36.00,31.26 35.27,31.77 29.75,33.42 C26.31,34.45 19.34,35.51 14.25,35.78 L 5.00 36.27 L 5.00 38.97 C5.00,43.01 8.69,53.47 12.04,58.91 C13.68,61.58 17.31,65.33 20.20,67.36 C26.29,71.62 30.95,72.09 36.94,69.03 ZM 26.50 63.28 C24.24,62.73 21.00,60.12 21.00,58.85 C21.00,58.38 22.26,58.00 23.79,58.00 C25.32,58.00 29.21,57.31 32.43,56.48 C35.65,55.64 38.49,55.15 38.73,55.40 C39.85,56.52 37.53,60.32 34.66,62.07 C31.49,64.00 30.22,64.19 26.50,63.28 ZM 55.50 50.85 C53.30,50.32 50.49,50.08 49.25,50.31 C47.44,50.64 47.00,50.26 47.00,48.40 C47.00,41.87 58.32,43.13 62.04,50.08 C63.23,52.30 62.14,52.43 55.50,50.85 ZM 13.00 48.22 C13.00,46.84 16.46,44.00 18.14,44.00 C18.95,44.00 20.47,44.62 21.50,45.38 C23.26,46.66 23.16,46.80 19.94,47.45 C18.05,47.84 15.71,48.37 14.75,48.64 C13.79,48.91 13.00,48.72 13.00,48.22 ZM 32.00 44.09 C32.00,42.62 35.65,40.00 37.71,40.00 C40.32,40.00 42.89,42.77 40.86,43.40 C37.77,44.37 32.00,44.82 32.00,44.09 ZM 64.72 37.11 C60.22,36.39 59.61,34.86 63.29,33.57 C65.36,32.84 66.38,33.03 67.97,34.47 C69.99,36.30 70.68,38.13 69.25,37.86 C68.84,37.78 66.80,37.44 64.72,37.11 ZM 47.84 34.33 C45.82,33.79 44.70,31.30 46.09,30.45 C47.42,29.62 52.22,32.83 51.47,34.04 C50.86,35.04 50.60,35.06 47.84,34.33 Z" fill="rgb(252,253,254)"/>
</g>
</svg>